Coordinates
version=1
nRows=21
nColumns=33
inDegrees=yes

Units are S.I. units (second, meters, Newtons, ...)
Angles are in degrees.

endheader
time	ground_thorax_rot_x	ground_thorax_rot_y	ground_thorax_rot_z	ground_thorax_tx	ground_thorax_ty	ground_thorax_tz	clav_prot_r	clav_elev_r	scapula_abduction_r	scapula_elevation_r	scapula_upward_rot_r	scapula_winging_r	shoulder_elv_r	plane_of_elev_r	axial_rot_r	elbow_flexion_r	pro_sup_r	wrist_flex_r	wrist_dev_r	clav_prot_l	clav_elev_l	scapula_abduction_l	scapula_elevation_l	scapula_upward_rot_l	scapula_winging_l	shoulder_elv_l	plane_of_elev_l	axial_rot_l	elbow_flexion_l	pro_sup_l	wrist_flex_l	wrist_dev_l
      3.11000000	     30.82417930	     22.75330121	     33.23658837	    -67.79295727	    873.37740347	    -50.02066197	      1.87968854	     40.05841537	     38.38253553	     45.00000000	     10.53453809	   1679.00655300	   -460.01769471	    143.80362630	   -179.99999979	   1786.05525618	     68.71017579	     25.67999218	     14.19928267	     -5.67530499	    -45.00000000	    -41.55539757	     45.00000000	    -45.00000000	   5507.54806999	  -3326.22178536	    134.19957836	   -127.43646483	   1430.05087544	     41.67443047	     13.35037393	    -21.72756409
      3.12000000	     30.88785247	     22.65110568	     33.22198542	    -67.90320805	    873.13235089	    -49.98359794	      2.17809848	     39.80445400	     38.47602505	     45.00000000	     10.53671537	   1678.79321965	   -460.15295279	    143.56658977	   -179.99999979	   1785.81314077	     68.23253952	     25.87383268	     14.18441699	     -6.15707173	    -45.00000000	    -41.21263245	     45.00000000	    -45.00000000	   5507.71138845	  -3326.15154325	    134.04725959	   -127.75998679	   1429.91427307	     41.70063025	     13.50798697	    -21.67949065
      3.13000000	     30.82662745	     22.81835275	     33.27686467	    -67.93245475	    872.80920896	    -49.92722632	      1.86242111	     40.35268405	     38.59992677	     45.00000000	     10.34636656	   1678.77626703	   -460.07049580	    143.95398147	   -179.99999979	   1786.14815071	     68.09407487	     25.26428831	     14.36625329	     -5.91359122	    -45.00000000	    -41.69844330	     45.00000000	    -45.00000000	   5507.46833438	  -3326.59865540	    134.64518184	   -127.77806433	   1430.02852528	     41.65790881	     13.31011885	    -21.84113417
      3.14000000	     30.79740703	     22.83046736	     33.30855325	    -67.87209312	    872.40457530	    -49.85264958	      2.01183845	     39.80280517	     38.43404445	     45.00000000	     10.47753030	   1678.54208024	   -460.30594982	    143.69299424	   -179.99999979	   1785.84060719	     67.86716487	     25.89749117	     14.14180138	     -6.10996687	    -45.00000000	    -41.35842990	     45.00000000	    -45.00000000	   5507.76376444	  -3326.44790191	    134.17210066	   -128.02509109	   1429.92506513	     41.79102265	     13.53964139	    -21.77811946
      3.15000000	     30.81720989	     22.92253853	     33.37203560	    -67.71266406	    871.95112687	    -49.76953559	      1.90692608	     40.23801039	     38.32548925	     45.00000000	     10.40212543	   1678.55825738	   -460.41377751	    143.64152618	   -179.99999979	   1785.84920285	     67.98102610	     25.41742610	     14.46032996	     -5.89493369	    -45.00000000	    -41.15680667	     45.00000000	    -45.00000000	   5507.47363478	  -3326.46207236	    134.44739099	   -128.17241545	   1429.83864127	     41.81366793	     13.35777083	    -21.85786327
      3.16000000	     30.83305392	     22.92261941	     33.41077309	    -67.44615385	    871.45066055	    -49.68322027	      1.87998739	     39.97592448	     38.41233319	     45.00000000	     10.42166365	   1678.47903545	   -460.47836946	    143.61826421	   -179.99999979	   1785.66694719	     67.88738385	     25.73085442	     14.24273673	     -6.04878676	    -45.00000000	    -41.20662074	     45.00000000	    -45.00000000	   5507.74226148	  -3326.62455779	    134.29147679	   -128.20239532	   1429.81950537	     41.89483341	     13.50169817	    -21.86713582
      3.17000000	     30.77771781	     23.09356307	     33.50152888	    -67.06192892	    870.91134231	    -49.59993948	      1.86143246	     40.02268744	     38.29558745	     45.00000000	     10.42194356	   1678.28530527	   -460.59356876	    143.48913838	   -179.99999979	   1785.65334935	     67.87140236	     25.67890977	     14.27574387	     -6.02467694	    -45.00000000	    -41.18614458	     45.00000000	    -45.00000000	   5507.49957917	  -3326.66798986	    134.51049260	   -128.32544215	   1429.75728268	     41.88951499	     13.35428026	    -21.91905299
      3.18000000	     30.79272570	     23.08672873	     33.52743791	    -66.55003879	    870.34182486	    -49.52508703	      1.75605871	     39.95301383	     38.49149333	     45.00000000	     10.43934958	   1678.20433185	   -460.62808127	    143.62224827	   -179.99999979	   1785.67425548	     67.72159947	     25.84339528	     14.07916390	     -6.05417924	    -45.00000000	    -41.20979249	     45.00000000	    -45.00000000	   5507.77736310	  -3326.75382015	    134.22548595	   -128.34193339	   1429.73193425	     41.93242260	     13.54162567	    -21.94322503
      3.19000000	     30.68921115	     23.32841506	     33.71850275	    -65.89712997	    869.74484990	    -49.46193644	      1.85227536	     40.08070100	     38.21818956	     45.00000000	     10.50421357	   1678.05759457	   -460.80293747	    143.31047566	   -179.99999979	   1785.56836699	     67.66958325	     25.69787321	     14.32546009	     -6.11685325	    -45.00000000	    -41.14326147	     45.00000000	    -45.00000000	   5507.23661824	  -3326.74877279	    134.67550686	   -128.26049906	   1429.70751021	     41.86801638	     13.20570398	    -21.98334453
      3.20000000	     30.77204521	     23.19790093	     33.64740277	    -65.09978834	    869.13034600	    -49.41303432	      1.51656331	     39.90408093	     38.49578348	     45.00000000	     10.52357488	   1678.16485602	   -460.81252019	    143.72436382	   -179.99999979	   1785.57541848	     67.30638268	     26.04514283	     13.88769542	     -5.99567784	    -45.00000000	    -41.21578311	     45.00000000	    -45.00000000	   5507.94095723	  -3326.91369637	    133.92397724	   -128.15306333	   1429.79223559	     41.93653151	     13.66732619	    -22.09268012
      3.21000000	     30.79380634	     23.25720736	     33.77115509	    -64.14660312	    868.49584322	    -49.37866486	      1.38241904	     40.09141414	     38.29781685	     45.00000000	     10.85710434	   1678.16423981	   -460.95580681	    143.59400090	   -179.99999979	   1785.58931337	     67.10119840	     25.87700571	     14.21419866	     -5.96410316	    -45.00000000	    -41.10176014	     45.00000000	    -45.00000000	   5507.43591676	  -3326.95007962	    134.33874495	   -127.87941233	   1429.74545590	     41.90072715	     13.34180468	    -22.12946397
      3.22000000	     30.71942475	     23.35812559	     33.92716364	    -63.04638966	    867.84926325	    -49.35817487	      1.17851210	     40.10711221	     38.34616976	     45.00000000	     11.12860848	   1678.08533869	   -460.95716286	    143.62334139	   -179.99999979	   1785.54723344	     66.71253745	     25.97264919	     14.24414304	     -5.97034861	    -45.00000000	    -41.13521587	     45.00000000	    -45.00000000	   5507.43925673	  -3326.93055579	    134.21165343	   -127.57290475	   1429.78576257	     41.93604835	     13.36258991	    -22.17105530
      3.23000000	     30.67641425	     23.44097078	     34.11864287	    -61.79994055	    867.18715901	    -49.34909620	      1.06016404	     40.11901267	     38.35125966	     45.00000000	     11.30847373	   1678.04077129	   -461.04992708	    143.58486724	   -179.99999979	   1785.48435782	     66.33030954	     25.97417840	     14.28166518	     -5.96737777	    -45.00000000	    -41.13083877	     45.00000000	    -45.00000000	   5507.35830874	  -3326.99039895	    134.18106515	   -127.24749741	   1429.82275212	     41.97452220	     13.33943213	    -22.25931719
      3.24000000	     30.61886299	     23.52932169	     34.29443954	    -60.42001669	    866.51054713	    -49.34791819	      0.87441042	     40.14239481	     38.37836421	     45.00000000	     11.56764978	   1678.01519005	   -461.09321572	    143.62207394	   -179.99999979	   1785.44773915	     65.92511490	     25.99237185	     14.35425306	     -5.96664396	    -45.00000000	    -41.15046235	     45.00000000	    -45.00000000	   5507.25732729	  -3327.01817770	    134.12206511	   -126.88810898	   1429.87568177	     42.02696542	     13.32046096	    -22.34414458
      3.25000000	     30.59428368	     23.52570807	     34.39956442	    -58.92328400	    865.81884191	    -49.35106891	      0.89547226	     40.13617694	     38.63452235	     45.00000000	     11.91728446	   1677.68772224	   -461.14728824	    143.50225090	   -179.99999979	   1785.38309765	     65.47407057	     26.08721888	     14.53786460	     -6.14111445	    -45.00000000	    -40.98977268	     45.00000000	    -45.00000000	   5507.09599897	  -3326.84028898	    133.97285978	   -126.43163909	   1429.86844859	     42.09621096	     13.32169519	    -22.40154042
      3.26000000	     30.41943633	     23.83651723	     34.77286337	    -57.32236337	    865.10939378	    -49.35486239	      0.38214865	     40.19873654	     38.35867358	     45.00000000	     12.11521577	   1678.05669680	   -461.09052964	    143.71932838	   -179.99999979	   1785.33610834	     65.04698428	     25.94929275	     14.53743850	     -5.82697831	    -45.00000000	    -41.25436529	     45.00000000	    -45.00000000	   5507.05998098	  -3327.02363759	    133.96003363	   -126.00725546	   1429.97061491	     42.09913870	     13.29373651	    -22.47118266
      3.27000000	     30.55491495	     23.60104657	     34.67948282	    -55.63905481	    864.38504653	    -49.35632412	      0.84049224	     40.09171425	     38.98550841	     45.00000000	     12.59435994	   1677.26570187	   -461.29248584	    143.29352330	   -179.99999979	   1785.18539547	     64.54751469	     26.06866128	     14.85946220	     -6.40620226	    -45.00000000	    -40.77470785	     45.00000000	    -45.00000000	   5506.78947700	  -3326.75712803	    133.74265351	   -125.44232414	   1429.86984708	     42.17894598	     13.32120996	    -22.52350147
      3.28000000	     30.51457432	     23.62913182	     34.78156519	    -53.88998897	    863.64998202	    -49.35249914	      0.87986287	     40.06886780	     39.17480267	     45.00000000	     13.04145768	   1676.97552414	   -461.40878604	    143.14506240	   -179.99999979	   1785.04575371	     63.98333260	     25.91961962	     15.01197176	     -6.69367817	    -45.00000000	    -40.75725548	     45.00000000	    -45.00000000	   5506.56004663	  -3326.69985651	    133.70371284	   -124.79063783	   1429.86053552	     42.17439264	     13.30939333	    -22.56571370
      3.29000000	     30.39329787	     23.71685728	     35.02889938	    -52.09066250	    862.91126645	    -49.34098581	      0.66671326	     40.05940958	     39.19905466	     45.00000000	     13.46714262	   1676.89068977	   -461.48525500	    143.14207189	   -179.99999979	   1785.05259588	     63.47810589	     25.95537429	     15.18980758	     -6.59147043	    -45.00000000	    -40.70391201	     45.00000000	    -45.00000000	   5506.45855636	  -3326.62695242	    133.60810002	   -124.41693233	   1429.89938029	     42.13867631	     13.31851425	    -22.59957979
      3.30000000	     30.35947886	     23.80880715	     35.17709720	    -50.24813505	    862.17603259	    -49.31928851	      0.50499025	     40.03588240	     39.36898588	     45.00000000	     13.80672400	   1676.77061152	   -461.45278055	    143.09391830	   -179.99999979	   1784.98396766	     63.04326578	     25.95533590	     15.37510857	     -6.54695738	    -45.00000000	    -40.63614489	     45.00000000	    -45.00000000	   5506.32328634	  -3326.62657051	    133.46063604	   -124.05957486	   1429.90844565	     42.10187090	     13.34707264	    -22.62259318
      3.31000000	     30.30556173	     23.83696024	     35.36507866	    -48.37116949	    861.45432956	    -49.28564314	      0.59022583	     40.04586704	     39.60943007	     45.00000000	     14.05695266	   1676.59787553	   -461.56307736	    143.00133899	   -179.99999979	   1784.88106141	     62.61369602	     25.77678046	     15.44896796	     -6.84416895	    -45.00000000	    -40.65063377	     45.00000000	    -45.00000000	   5506.14385069	  -3326.63783038	    133.49087185	   -123.51456184	   1429.92074797	     42.04013898	     13.35010536	    -22.60973847
